<?xml version="1.0" encoding="UTF-8" standalone="no"?>
<!DOCTYPE svg PUBLIC "-//W3C//DTD SVG 1.1//EN"
 "http://www.w3.org/Graphics/SVG/1.1/DTD/svg11.dtd">
<!-- Generated by graphviz version 2.28.0 (20120930.1950)
 -->
<!-- Title: controllers_diagram Pages: 1 -->
<svg width="462pt" height="437pt"
 viewBox="0.00 0.00 461.75 437.16" xmlns="http://www.w3.org/2000/svg" xmlns:xlink="http://www.w3.org/1999/xlink">
<g id="graph1" class="graph" transform="scale(1 1) rotate(0) translate(4 433.158)">
<title>controllers_diagram</title>
<polygon fill="white" stroke="white" points="-4,5 -4,-433.158 458.75,-433.158 458.75,5 -4,5"/>
<!-- _diagram_info -->
<g id="node1" class="node"><title>_diagram_info</title>
<text text-anchor="start" x="252.75" y="-133.6" font-family="Times,serif" font-size="13.00">Controllers diagram</text>
<text text-anchor="start" x="252.75" y="-119.6" font-family="Times,serif" font-size="13.00">Date: Sep 30 2012 &#45; 16:47</text>
<text text-anchor="start" x="252.75" y="-105.6" font-family="Times,serif" font-size="13.00">Migration version: 20120929004550</text>
<text text-anchor="start" x="252.75" y="-91.6" font-family="Times,serif" font-size="13.00">Generated by RailRoady 1.1.0</text>
<text text-anchor="start" x="252.75" y="-77.6" font-family="Times,serif" font-size="13.00">http://railroady.prestonlee.com</text>
</g>
<!-- ApplicationController -->
<g id="node2" class="node"><title>ApplicationController</title>
<polyline fill="none" stroke="black" points="73.4682,-185.077 251.468,-185.077 "/>
<path fill="none" stroke="black" d="M251.468,-185.077C257.468,-185.077 263.468,-191.077 263.468,-197.077"/>
<polyline fill="none" stroke="black" points="263.468,-197.077 263.468,-266.077 "/>
<path fill="none" stroke="black" d="M263.468,-266.077C263.468,-272.077 257.468,-278.077 251.468,-278.077"/>
<polyline fill="none" stroke="black" points="251.468,-278.077 73.4682,-278.077 "/>
<path fill="none" stroke="black" d="M73.4682,-278.077C67.4682,-278.077 61.4682,-272.077 61.4682,-266.077"/>
<polyline fill="none" stroke="black" points="61.4682,-266.077 61.4682,-197.077 "/>
<path fill="none" stroke="black" d="M61.4682,-197.077C61.4682,-191.077 67.4682,-185.077 73.4682,-185.077"/>
<text text-anchor="middle" x="162.468" y="-262.877" font-family="Times,serif" font-size="14.00">ApplicationController</text>
<polyline fill="none" stroke="black" points="61.4682,-255.077 263.468,-255.077 "/>
<text text-anchor="start" x="69.4682" y="-239.877" font-family="Times,serif" font-size="14.00">_one_time_conditions_valid_8?</text>
<polyline fill="none" stroke="black" points="61.4682,-232.077 263.468,-232.077 "/>
<polyline fill="none" stroke="black" points="61.4682,-208.077 263.468,-208.077 "/>
<text text-anchor="start" x="69.4682" y="-192.877" font-family="Times,serif" font-size="14.00">_layout</text>
</g>
<!-- SessionsController -->
<g id="node3" class="node"><title>SessionsController</title>
<polyline fill="none" stroke="black" points="283.468,-196.695 384.468,-196.695 "/>
<path fill="none" stroke="black" d="M384.468,-196.695C390.468,-196.695 396.468,-202.695 396.468,-208.695"/>
<polyline fill="none" stroke="black" points="396.468,-208.695 396.468,-307.695 "/>
<path fill="none" stroke="black" d="M396.468,-307.695C396.468,-313.695 390.468,-319.695 384.468,-319.695"/>
<polyline fill="none" stroke="black" points="384.468,-319.695 283.468,-319.695 "/>
<path fill="none" stroke="black" d="M283.468,-319.695C277.468,-319.695 271.468,-313.695 271.468,-307.695"/>
<polyline fill="none" stroke="black" points="271.468,-307.695 271.468,-208.695 "/>
<path fill="none" stroke="black" d="M271.468,-208.695C271.468,-202.695 277.468,-196.695 283.468,-196.695"/>
<text text-anchor="middle" x="333.968" y="-304.495" font-family="Times,serif" font-size="14.00">SessionsController</text>
<polyline fill="none" stroke="black" points="271.468,-296.695 396.468,-296.695 "/>
<text text-anchor="start" x="279.468" y="-281.495" font-family="Times,serif" font-size="14.00">create</text>
<text text-anchor="start" x="279.468" y="-266.495" font-family="Times,serif" font-size="14.00">destroy</text>
<text text-anchor="start" x="279.468" y="-251.495" font-family="Times,serif" font-size="14.00">new</text>
<polyline fill="none" stroke="black" points="271.468,-243.695 396.468,-243.695 "/>
<polyline fill="none" stroke="black" points="271.468,-219.695 396.468,-219.695 "/>
<text text-anchor="start" x="279.468" y="-204.495" font-family="Times,serif" font-size="14.00">_layout</text>
</g>
<!-- ApplicationController&#45;&gt;SessionsController -->
<g id="edge2" class="edge"><title>ApplicationController&#45;&gt;SessionsController</title>
<path fill="none" stroke="black" d="M263.718,-247.292C266.183,-247.675 268.631,-248.055 271.053,-248.431"/>
</g>
<!-- StaticPagesController -->
<g id="node4" class="node"><title>StaticPagesController</title>
<polyline fill="none" stroke="black" points="42.094,-0.5 159.094,-0.5 "/>
<path fill="none" stroke="black" d="M159.094,-0.5C165.094,-0.5 171.094,-6.5 171.094,-12.5"/>
<polyline fill="none" stroke="black" points="171.094,-12.5 171.094,-126.5 "/>
<path fill="none" stroke="black" d="M171.094,-126.5C171.094,-132.5 165.094,-138.5 159.094,-138.5"/>
<polyline fill="none" stroke="black" points="159.094,-138.5 42.094,-138.5 "/>
<path fill="none" stroke="black" d="M42.094,-138.5C36.094,-138.5 30.094,-132.5 30.094,-126.5"/>
<polyline fill="none" stroke="black" points="30.094,-126.5 30.094,-12.5 "/>
<path fill="none" stroke="black" d="M30.094,-12.5C30.094,-6.5 36.094,-0.5 42.094,-0.5"/>
<text text-anchor="middle" x="100.594" y="-123.3" font-family="Times,serif" font-size="14.00">StaticPagesController</text>
<polyline fill="none" stroke="black" points="30.094,-115.5 171.094,-115.5 "/>
<text text-anchor="start" x="38.094" y="-100.3" font-family="Times,serif" font-size="14.00">about</text>
<text text-anchor="start" x="38.094" y="-85.3" font-family="Times,serif" font-size="14.00">contact</text>
<text text-anchor="start" x="38.094" y="-70.3" font-family="Times,serif" font-size="14.00">help</text>
<text text-anchor="start" x="38.094" y="-55.3" font-family="Times,serif" font-size="14.00">home</text>
<polyline fill="none" stroke="black" points="30.094,-47.5 171.094,-47.5 "/>
<polyline fill="none" stroke="black" points="30.094,-23.5 171.094,-23.5 "/>
<text text-anchor="start" x="38.094" y="-8.3" font-family="Times,serif" font-size="14.00">_layout</text>
</g>
<!-- ApplicationController&#45;&gt;StaticPagesController -->
<g id="edge4" class="edge"><title>ApplicationController&#45;&gt;StaticPagesController</title>
<path fill="none" stroke="black" d="M144.572,-184.698C139.075,-170.3 132.907,-154.142 126.967,-138.584"/>
</g>
<!-- UsersController -->
<g id="node5" class="node"><title>UsersController</title>
<polyline fill="none" stroke="black" points="11.75,-305.658 96.75,-305.658 "/>
<path fill="none" stroke="black" d="M96.75,-305.658C102.75,-305.658 108.75,-311.658 108.75,-317.658"/>
<polyline fill="none" stroke="black" points="108.75,-317.658 108.75,-416.658 "/>
<path fill="none" stroke="black" d="M108.75,-416.658C108.75,-422.658 102.75,-428.658 96.75,-428.658"/>
<polyline fill="none" stroke="black" points="96.75,-428.658 11.75,-428.658 "/>
<path fill="none" stroke="black" d="M11.75,-428.658C5.75,-428.658 -0.25,-422.658 -0.25,-416.658"/>
<polyline fill="none" stroke="black" points="-0.25,-416.658 -0.25,-317.658 "/>
<path fill="none" stroke="black" d="M-0.25,-317.658C-0.25,-311.658 5.75,-305.658 11.75,-305.658"/>
<text text-anchor="middle" x="54.25" y="-413.458" font-family="Times,serif" font-size="14.00">UsersController</text>
<polyline fill="none" stroke="black" points="-0.25,-405.658 108.75,-405.658 "/>
<text text-anchor="start" x="7.75" y="-390.458" font-family="Times,serif" font-size="14.00">create</text>
<text text-anchor="start" x="7.75" y="-375.458" font-family="Times,serif" font-size="14.00">new</text>
<text text-anchor="start" x="7.75" y="-360.458" font-family="Times,serif" font-size="14.00">show</text>
<polyline fill="none" stroke="black" points="-0.25,-352.658 108.75,-352.658 "/>
<polyline fill="none" stroke="black" points="-0.25,-328.658 108.75,-328.658 "/>
<text text-anchor="start" x="7.75" y="-313.458" font-family="Times,serif" font-size="14.00">_layout</text>
</g>
<!-- ApplicationController&#45;&gt;UsersController -->
<g id="edge6" class="edge"><title>ApplicationController&#45;&gt;UsersController</title>
<path fill="none" stroke="black" d="M125.226,-278.236C118.256,-286.969 110.871,-296.221 103.601,-305.328"/>
</g>
</g>
</svg>
