<?xml version="1.0" encoding="UTF-8" standalone="no"?>
<!DOCTYPE svg PUBLIC "-//W3C//DTD SVG 1.1//EN"
 "http://www.w3.org/Graphics/SVG/1.1/DTD/svg11.dtd">
<!-- Generated by graphviz version 2.28.0 (20120930.1950)
 -->
<!-- Title: models_diagram Pages: 1 -->
<svg width="389pt" height="146pt"
 viewBox="0.00 0.00 389.00 146.00" xmlns="http://www.w3.org/2000/svg" xmlns:xlink="http://www.w3.org/1999/xlink">
<g id="graph1" class="graph" transform="scale(1 1) rotate(0) translate(4 142)">
<title>models_diagram</title>
<polygon fill="white" stroke="white" points="-4,5 -4,-142 386,-142 386,5 -4,5"/>
<!-- _diagram_info -->
<g id="node1" class="node"><title>_diagram_info</title>
<text text-anchor="start" x="7.5" y="-93.6" font-family="Times,serif" font-size="13.00">Models diagram</text>
<text text-anchor="start" x="7.5" y="-79.6" font-family="Times,serif" font-size="13.00">Date: Sep 30 2012 &#45; 16:47</text>
<text text-anchor="start" x="7.5" y="-65.6" font-family="Times,serif" font-size="13.00">Migration version: 20120929004550</text>
<text text-anchor="start" x="7.5" y="-51.6" font-family="Times,serif" font-size="13.00">Generated by RailRoady 1.1.0</text>
<text text-anchor="start" x="7.5" y="-37.6" font-family="Times,serif" font-size="13.00">http://railroady.prestonlee.com</text>
</g>
<!-- User -->
<g id="node2" class="node"><title>User</title>
<polyline fill="none" stroke="black" points="238.5,-1 369.5,-1 "/>
<path fill="none" stroke="black" d="M369.5,-1C375.5,-1 381.5,-7 381.5,-13"/>
<polyline fill="none" stroke="black" points="381.5,-13 381.5,-125 "/>
<path fill="none" stroke="black" d="M381.5,-125C381.5,-131 375.5,-137 369.5,-137"/>
<polyline fill="none" stroke="black" points="369.5,-137 238.5,-137 "/>
<path fill="none" stroke="black" d="M238.5,-137C232.5,-137 226.5,-131 226.5,-125"/>
<polyline fill="none" stroke="black" points="226.5,-125 226.5,-13 "/>
<path fill="none" stroke="black" d="M226.5,-13C226.5,-7 232.5,-1 238.5,-1"/>
<text text-anchor="middle" x="304" y="-121.8" font-family="Times,serif" font-size="14.00">User</text>
<polyline fill="none" stroke="black" points="226.5,-114 381.5,-114 "/>
<text text-anchor="start" x="234.5" y="-98.8" font-family="Times,serif" font-size="14.00">id :integer</text>
<text text-anchor="start" x="234.5" y="-83.8" font-family="Times,serif" font-size="14.00">name :string</text>
<text text-anchor="start" x="234.5" y="-68.8" font-family="Times,serif" font-size="14.00">email :string</text>
<text text-anchor="start" x="234.5" y="-53.8" font-family="Times,serif" font-size="14.00">created_at :datetime</text>
<text text-anchor="start" x="234.5" y="-38.8" font-family="Times,serif" font-size="14.00">updated_at :datetime</text>
<text text-anchor="start" x="234.5" y="-23.8" font-family="Times,serif" font-size="14.00">password_digest :string</text>
<text text-anchor="start" x="234.5" y="-8.8" font-family="Times,serif" font-size="14.00">remember_token :string</text>
</g>
</g>
</svg>
